<svg xmlns="http://www.w3.org/2000/svg" width="15" height="15"><g fill="#a0131d"><path d="M7.969 3.076v-.439h.879v-.879h-.879v-.44a1.319 1.319 0 00-2.637 0v1.758a1.319 1.319 0 002.637 0zm-.879 0a.44.44 0 11-.879 0v-.439h.879zm0-1.318h-.879v-.44a.44.44 0 11.879 0z"/><path data-name="Vector" d="M12.7 8.888l-.265-1.857h.812V4.395h-1.323a1.32 1.32 0 00-1.243.879H7.893a1.318 1.318 0 00-1.683-.8v-.079H.879V8.79H0v.879h1.48A3.99 3.99 0 000 12.774a2.221 2.221 0 002.2 2.227 2.216 2.216 0 002.151-1.788h6.3A2.195 2.195 0 0015 12.774v-.879a3.114 3.114 0 00-2.3-3.007zm-.776-3.614h.439v.879h-.439a.44.44 0 110-.879zm-10.166 0h3.574v.879H1.758zm0 1.758h3.574V8.79H1.758zm.442 7.09a1.342 1.342 0 01-1.246-.909H3.44a1.342 1.342 0 01-1.24.909zm4.89-1.788H.91a3.09 3.09 0 013.045-2.666H7.09zm1.758 0h-.879V8.79H6.65a.44.44 0 01-.439-.439v-.516a1.312 1.312 0 00.439.076h1.758a.44.44 0 01.439.439zm-2.2-5.3a.44.44 0 01-.437-.439v-.882a.44.44 0 11.879 0v.439h3.44a1.321 1.321 0 01-1.243.879zm3.955.438v1.757a1.368 1.368 0 01-.876 1.266V8.35a1.311 1.311 0 00-.086-.468 2.187 2.187 0 00.965-.412zm.044 4.864h-.92v-.925a2.232 2.232 0 001.758-2.182V6.956l.05.017c.66 4.617.135.949.38 2.672l.328.047a2.195 2.195 0 011.62 1.157 2.2 2.2 0 00-3.213 1.485zm2.153 1.786a1.351 1.351 0 01-1.318-1.348 1.319 1.319 0 01.708-1.168l.176 1.23.87-.124-.176-1.23a1.32 1.32 0 011.059 1.293 1.351 1.351 0 01-1.319 1.347z"/></g></svg>