<svg xmlns="http://www.w3.org/2000/svg" width="14.805" height="10.246"><g fill="#9e9e9e" stroke="#707070" stroke-width=".4"><path data-name="Контур 26647" d="M13.731 10.046H1.074A.875.875 0 01.2 9.172v-8.1a.875.875 0 01.874-.874H13.73a.875.875 0 01.875.874v8.1a.875.875 0 01-.874.874zM1.074.612a.463.463 0 00-.463.463v8.1a.463.463 0 00.463.463H13.73a.463.463 0 00.463-.463v-8.1a.463.463 0 00-.463-.463z"/><path data-name="Контур 26648" d="M7.403 5.679a.947.947 0 01-.57-.189L.515.733A.206.206 0 01.762.404L7.08 5.163a.538.538 0 00.645 0L14.044.407a.206.206 0 11.247.329L7.973 5.492a.947.947 0 01-.569.189z"/><path data-name="Контур 26649" d="M.546 9.786a.206.206 0 01-.133-.363l5.676-4.809a.206.206 0 11.266.314L.679 9.74a.2.2 0 01-.133.046z"/><path data-name="Контур 26650" d="M14.259 9.786a.2.2 0 01-.133-.049L8.45 4.928a.206.206 0 11.266-.314l5.676 4.809a.206.206 0 01-.133.363z"/></g></svg>