<svg xmlns="http://www.w3.org/2000/svg" width="199.895" height="79.612"><g data-name="Сгруппировать 15078"><g data-name="Сгруппировать 15077"><g data-name="Сгруппировать 15076"><g data-name="Сгруппировать 15073"><g data-name="Сгруппировать 15072" fill="#9f111b"><path d="M11.941 72.977h7.961v5.307a1.327 1.327 0 001.327 1.327h5.307a1.327 1.327 0 001.327-1.327v-5.307h7.961a1.327 1.327 0 001.308-1.109l10.616-63.69a1.327 1.327 0 00-1.308-1.544H27.863V1.326A1.327 1.327 0 0026.536 0h-5.307a1.327 1.327 0 00-1.327 1.327v5.307H1.326A1.327 1.327 0 00.018 8.178l10.615 63.69a1.327 1.327 0 001.308 1.109zm13.269 3.981h-2.657v-3.981h2.654zM22.553 2.653h2.654v3.981h-2.654zm-13.03 46.44h3.742V46.44H9.084l-.885-5.307h11.7v-2.654H7.753l-.885-5.307h9.049v-2.654H6.43l-.885-5.307h5.069v-2.655H5.103l-.884-5.307h7.721v-2.654H3.777l-.884-5.307h41.979l-.884 5.307h-4.183v2.654h3.74l-8.844 53.075H13.065l-.885-5.307h3.742v-2.654h-4.184l-.885-5.308h7.722v-2.654h-8.164z" fill-rule="evenodd"/><path d="M13.268 22.557h7.961v2.654h-7.961zm5.308 39.806h5.307v2.654h-5.307zm2.653-7.961h2.654v2.654h-2.654zm-5.307-7.962h7.961v2.654h-7.961zm2.654-15.922h5.307v2.654h-5.307zm-3.981-15.922h9.288v2.654h-9.288zm18.576 15.922h3.981v2.654h-3.981zM29.19 46.44h3.981v2.654H29.19zm-1.326-23.883h3.981v2.654h-3.981zm1.326 39.806h3.981v2.654H29.19z"/><path d="M51.747 61.036h2.654v12.448l-1.015.508a2.967 2.967 0 001.327 5.619h7.649a1.327 1.327 0 001.327-1.327V7.961a1.327 1.327 0 00-1.327-1.327A11.955 11.955 0 0050.42 18.576v41.133a1.327 1.327 0 001.327 1.327zm9.288 15.92h-6.321a.313.313 0 01-.133-.593l1.746-.873a1.327 1.327 0 00.727-1.188V61.036h3.981zm-7.957-58.38a9.3 9.3 0 017.961-9.194v49h-7.961z" fill-rule="evenodd"/></g></g><g data-name="Сгруппировать 15074"><text data-name="H A M D" transform="translate(85.895 32.985)" fill="#9f111b" font-size="31" font-family="ArialMT, Arial"><tspan x="0" y="0">H A M D</tspan></text></g><g data-name="Сгруппировать 15075"><text data-name="S . N . S" transform="translate(87.801 49.779)" fill="#9f111b" font-size="15" font-family="Arial-BoldMT, Arial" font-weight="700" letter-spacing=".15em"><tspan x="0" y="0">S . N . S</tspan></text></g></g></g></g></svg>