<svg xmlns="http://www.w3.org/2000/svg" width="23.401" height="22.775"><g data-name="Сгруппировать 15048"><g data-name="Сгруппировать 15047"><path data-name="Контур 26617" d="M7.469 17.889a2.443 2.443 0 102.443 2.443 2.443 2.443 0 00-2.443-2.443zm0 3.8a1.357 1.357 0 111.357-1.357 1.357 1.357 0 01-1.357 1.357z"/><path data-name="Контур 26618" d="M17.78 17.889a2.443 2.443 0 102.443 2.443 2.443 2.443 0 00-2.443-2.443zm0 3.8a1.357 1.357 0 111.357-1.357 1.357 1.357 0 01-1.357 1.357z"/><path data-name="Контур 26619" d="M23.291 3.637a.679.679 0 00-.434-.217L5.185 3.172 4.7 1.683A2.5 2.5 0 002.362 0H.543a.543.543 0 000 1.086h1.819a1.412 1.412 0 011.3.95l3.447 10.4-.271.624a2.606 2.606 0 00.244 2.362 2.524 2.524 0 002.036 1.14H19.68a.543.543 0 100-1.086H9.121a1.384 1.384 0 01-1.14-.651 1.493 1.493 0 01-.136-1.3l.217-.489 11.428-1.201a2.986 2.986 0 002.579-2.28l1.3-5.456a.461.461 0 00-.078-.462zm-2.28 5.673a1.846 1.846 0 01-1.656 1.439L8.062 11.917 5.538 4.262l16.64.244z"/></g></g></svg>