<svg xmlns="http://www.w3.org/2000/svg" width="18.988" height="18.985"><path d="M4.53 10.722a15.916 15.916 0 004.04 5.376 8.239 8.239 0 002.634 1.615c.069.018.134.042.202.06a2.453 2.453 0 002.047-.297.068.068 0 00.016-.012 8.01 8.01 0 01.74-.446c.178-.097.365-.198.536-.307a1.5 1.5 0 00.573-2.16l-1.317-2.288a1.512 1.512 0 00-.928-.766 1.563 1.563 0 00-1.198.196l-1.364.787c-.081-.083-.172-.162-.255-.236a3.843 3.843 0 01-.283-.268A11.777 11.777 0 017.921 8.77a6.783 6.783 0 01-.526-1.712c.35-.18.687-.376 1.012-.569.116-.072.234-.137.351-.205a1.593 1.593 0 00.788-.947 1.581 1.581 0 00-.208-1.215L8.683 2.99a32.115 32.115 0 01-.222-.394 16.134 16.134 0 00-.448-.767 1.55 1.55 0 00-.933-.746 1.6 1.6 0 00-1.193.179l-1.424.821a2.388 2.388 0 00-1.084 1.293 5.753 5.753 0 00-.227 2.514 14.468 14.468 0 001.379 4.833zm-.436-7.087a1.644 1.644 0 01.75-.893l1.418-.817a.837.837 0 01.621-.108.794.794 0 01.47.405c.151.24.284.486.437.748l.226.401.655 1.14a.844.844 0 01.131.637.844.844 0 01-.432.485c-.123.071-.239.144-.355.208-.355.207-.687.404-1.045.582l-.018.009a.608.608 0 00-.328.626c-.002.009.002.017.002.027a7.316 7.316 0 00.593 1.997 12.43 12.43 0 002.192 3.413 4.45 4.45 0 00.338.322 3.844 3.844 0 01.282.269l.028.027a.65.65 0 00.27.153.66.66 0 00.501-.084l1.424-.822a.823.823 0 01.621-.12.781.781 0 01.46.41l1.325 2.293a.75.75 0 01-.312 1.13c-.163.101-.329.195-.506.292a8.952 8.952 0 00-.802.482 1.706 1.706 0 01-1.434.202c-.052-.014-.106-.028-.155-.048a7.485 7.485 0 01-2.381-1.466 15.12 15.12 0 01-3.845-5.122 13.848 13.848 0 01-1.313-4.584 5.014 5.014 0 01.182-2.194z" fill="#9e9e9e" stroke="#9e9e9e" stroke-width=".5"/></svg>