<svg xmlns="http://www.w3.org/2000/svg" width="20.999" height="21"><path d="M20.909 3.338L17.658.09a.309.309 0 00-.437 0L2.205 15.106a.291.291 0 00-.021.026l-.014.017a.309.309 0 00-.034.062l-1.222 3.1-.893 2.263a.309.309 0 00.4.4l2.263-.892 3.1-1.223a.313.313 0 00.062-.034l.018-.014.026-.021 10.905-10.9 4.11-4.111a.309.309 0 000-.438zm-4.33 3.9L13.767 4.42l.88-.881 2.812 2.812zm-10.904 10.9l-.618-.618L15.523 7.051l.618.618zm-1.757-1.757L14.386 5.914l.7.7L4.619 17.082zm-1.056-1.056L13.33 4.858l.618.618L3.481 15.944zm-1.547 3.657l.7.7-1.16.458zm1.33.456l-1.082-1.083.977-2.478.722.722 1.137 1.139.722.722zM17.897 5.916l-2.813-2.813L17.44.747l2.813 2.812z"/></svg>