<svg xmlns="http://www.w3.org/2000/svg" width="154" height="154"><defs><filter id="a" x="0" y="0" width="154" height="154" filterUnits="userSpaceOnUse"><feOffset dy="4"/><feGaussianBlur stdDeviation="20" result="blur"/><feFlood flood-color="#ffe195" flood-opacity=".369"/><feComposite operator="in" in2="blur"/><feComposite in="SourceGraphic"/></filter></defs><g filter="url(#a)"><g data-name="Rectangle 580" transform="translate(60 56)" fill="#9f111b" stroke="#fff"><rect width="34" height="34" rx="5" stroke="none"/><rect x=".5" y=".5" width="33" height="33" rx="4.5" fill="none"/></g></g><g fill="#fff"><path d="M76.502 67.023h1a.117.117 0 01.133.133v11.687a.117.117 0 01-.133.133h-1a.117.117 0 01-.133-.133V67.156a.117.117 0 01.133-.133z"/><path data-name="Vector" d="M71.422 72.369h11.156a.117.117 0 01.133.133v1a.117.117 0 01-.133.133H71.422a.117.117 0 01-.133-.137v-1a.117.117 0 01.133-.129z"/></g></svg>