<svg xmlns="http://www.w3.org/2000/svg" width="40.22" height="26.351"><path data-name="Контур 26620" d="M37.208 0H3.012A3.012 3.012 0 000 3.012v4.992h40.22V3.012A3.012 3.012 0 0037.208 0z" fill="#82afff"/><path data-name="Контур 26621" d="M0 23.339a3.012 3.012 0 003.012 3.012h34.2a3.012 3.012 0 003.012-3.012v-4.991H0z" fill="#73af00"/><path data-name="Прямоугольник 17296" fill="#f5f5f5" d="M0 9.099h40.22v8.153H0z"/><g data-name="Сгруппировать 15083" fill="#ff4b55"><path data-name="Контур 26622" d="M0 8.783v.315h40.22v-1.1H0z"/><path data-name="Контур 26623" d="M0 17.567v.78h40.22v-1.1H0z"/></g><g data-name="Сгруппировать 15084" fill="#f5f5f5"><path data-name="Контур 26624" d="M8.915 6.583a2.568 2.568 0 110-5.135h.016a.079.079 0 00.039-.149A3.047 3.047 0 007.504.936a3.08 3.08 0 00.022 6.16 3.056 3.056 0 001.447-.363.079.079 0 00-.04-.149z"/><path data-name="Контур 26625" d="M10.928 5.874l-.115.344h-.363a.049.049 0 00-.029.088l.292.216-.11.346a.049.049 0 00.075.055l.3-.211.3.211a.049.049 0 00.075-.055l-.11-.346.292-.216a.049.049 0 00-.029-.088h-.363l-.115-.344a.05.05 0 00-.1 0z"/><path data-name="Контур 26626" d="M13.484 5.874l-.115.344h-.363a.049.049 0 00-.029.088l.292.216-.109.346a.049.049 0 00.075.055l.3-.211.3.211a.049.049 0 00.075-.055l-.11-.346.292-.216a.049.049 0 00-.029-.088H13.7l-.115-.344a.05.05 0 00-.101 0z"/><path data-name="Контур 26627" d="M16.041 5.874l-.115.344h-.363a.049.049 0 00-.029.088l.292.216-.11.346a.049.049 0 00.075.055l.3-.211.3.211a.049.049 0 00.075-.055l-.109-.346.292-.216a.049.049 0 00-.029-.088h-.363l-.115-.344a.05.05 0 00-.101 0z"/><path data-name="Контур 26628" d="M18.597 5.874l-.115.344h-.363a.049.049 0 00-.029.088l.292.216-.109.346a.049.049 0 00.075.055l.3-.211.3.211a.049.049 0 00.075-.055l-.109-.346.292-.216a.049.049 0 00-.029-.088h-.363l-.115-.344a.051.051 0 00-.102 0z"/><path data-name="Контур 26629" d="M21.154 5.874l-.11.342h-.363a.049.049 0 00-.029.088l.292.216-.11.346a.049.049 0 00.075.055l.3-.211.3.211a.049.049 0 00.075-.055l-.11-.346.292-.216a.049.049 0 00-.029-.088h-.363l-.115-.344a.053.053 0 00-.105.002z"/><path data-name="Контур 26630" d="M13.484 3.489l-.115.344h-.363a.049.049 0 00-.029.088l.292.216-.109.346a.049.049 0 00.075.055l.3-.211.3.211a.049.049 0 00.075-.055l-.11-.346.292-.216a.049.049 0 00-.029-.088H13.7l-.115-.344a.05.05 0 00-.101 0z"/><path data-name="Контур 26631" d="M16.041 3.489l-.115.344h-.363a.049.049 0 00-.029.088l.292.216-.11.346a.049.049 0 00.075.055l.3-.211.3.211a.049.049 0 00.075-.055l-.109-.346.292-.216a.049.049 0 00-.029-.088h-.363l-.115-.344a.05.05 0 00-.101 0z"/><path data-name="Контур 26632" d="M18.597 3.489l-.115.344h-.363a.049.049 0 00-.029.088l.292.216-.109.346a.049.049 0 00.075.055l.3-.211.3.211a.049.049 0 00.075-.055l-.109-.346.292-.216a.049.049 0 00-.029-.088h-.363l-.115-.344a.051.051 0 00-.102 0z"/><path data-name="Контур 26633" d="M21.154 3.489l-.115.344h-.363a.049.049 0 00-.029.088l.292.216-.11.346a.049.049 0 00.075.055l.3-.211.3.211a.049.049 0 00.075-.055l-.11-.346.292-.216a.049.049 0 00-.029-.088h-.363l-.115-.344a.05.05 0 00-.1 0z"/><path data-name="Контур 26634" d="M16.041 5.874l-.115.344h-.363a.049.049 0 00-.029.088l.292.216-.11.346a.049.049 0 00.075.055l.3-.211.3.211a.049.049 0 00.075-.055l-.109-.346.292-.216a.049.049 0 00-.029-.088h-.363l-.115-.344a.05.05 0 00-.101 0z"/><path data-name="Контур 26635" d="M16.041 1.102l-.115.344h-.363a.049.049 0 00-.029.088l.292.216-.11.346a.049.049 0 00.075.055l.3-.211.3.211a.049.049 0 00.075-.055l-.109-.346.292-.216a.049.049 0 00-.029-.088h-.363l-.115-.344a.05.05 0 00-.101 0z"/><path data-name="Контур 26636" d="M18.597 5.874l-.115.344h-.363a.049.049 0 00-.029.088l.292.216-.109.346a.049.049 0 00.075.055l.3-.211.3.211a.049.049 0 00.075-.055l-.109-.346.292-.216a.049.049 0 00-.029-.088h-.363l-.115-.344a.051.051 0 00-.102 0z"/><path data-name="Контур 26637" d="M21.154 5.874l-.11.342h-.363a.049.049 0 00-.029.088l.292.216-.11.346a.049.049 0 00.075.055l.3-.211.3.211a.049.049 0 00.075-.055l-.11-.346.292-.216a.049.049 0 00-.029-.088h-.363l-.115-.344a.053.053 0 00-.105.002z"/><path data-name="Контур 26638" d="M18.597 1.102l-.115.344h-.363a.049.049 0 00-.029.088l.292.216-.109.346a.049.049 0 00.075.055l.3-.211.3.211a.049.049 0 00.075-.055l-.109-.346.292-.216a.049.049 0 00-.029-.088h-.363l-.115-.344a.051.051 0 00-.102 0z"/><path data-name="Контур 26639" d="M21.154 1.102l-.115.344h-.363a.049.049 0 00-.029.088l.292.216-.11.346a.049.049 0 00.075.055l.3-.211.3.211a.049.049 0 00.075-.055l-.11-.346.292-.216a.049.049 0 00-.029-.088h-.363l-.115-.344a.05.05 0 00-.1 0z"/></g></svg>